<svg width="115" height="36" viewBox="0 0 115 36" fill="none" xmlns="http://www.w3.org/2000/svg">
<g clip-path="url(#clip0_3804_27544)">
<path d="M59.1332 22.4833C59.1332 23.8142 58.8878 25.0612 58.3972 26.2241C57.8995 27.3969 57.1703 28.4582 56.2528 29.345C55.316 30.2481 54.213 30.9625 53.0042 31.4492C50.5649 32.4351 47.8357 32.4351 45.3964 31.4492C44.1984 30.967 43.1091 30.2517 42.1923 29.345C41.2363 28.4283 40.5109 27.3837 40.0161 26.2111C39.5193 25.0309 39.2668 23.763 39.2736 22.4833C39.2736 21.1607 39.5211 19.9159 40.0161 18.7489C40.5111 17.582 41.2365 16.5394 42.1923 15.6212C43.1092 14.7146 44.1985 13.9993 45.3964 13.517C47.8422 12.5311 50.5772 12.5311 53.023 13.517C54.2287 13.9989 55.3264 14.7141 56.2528 15.6212C57.1681 16.5086 57.8952 17.57 58.391 18.7425C58.8858 19.9135 59.1332 21.1605 59.1332 22.4833ZM49.2095 27.9173C50.6135 27.9173 51.7746 27.4033 52.6928 26.3753C53.611 25.3474 54.07 24.05 54.0697 22.4833C54.0697 20.9331 53.6043 19.6399 52.6736 18.6038C51.7429 17.5677 50.5882 17.0495 49.2095 17.0493C47.805 17.0493 46.6439 17.5653 45.7262 18.5973C44.8085 19.6293 44.3496 20.9247 44.3493 22.4833C44.3493 24.0673 44.8019 25.3689 45.707 26.3879C46.6122 27.407 47.7797 27.9168 49.2095 27.9173Z" fill="#3D4046"/>
<path d="M61.2656 31.6959V13.1946H66.2785V21.5975L72.1539 13.1946H78.0546L71.1893 22.2178L78.651 31.6959H72.3315L66.2785 23.393V31.6959H61.2656Z" fill="#3D4046"/>
<path d="M80.8904 31.6959V13.1946H85.9044V21.5975L91.7794 13.1946H97.679L90.8137 22.2178L98.2754 31.6959H91.9558L85.9044 23.393V31.6959H80.8904Z" fill="#3D4046"/>
<path d="M103.615 31.6957V23.2546L97.1172 13.1951H102.931L105.431 17.9596C105.448 17.9848 105.473 18.0314 105.508 18.0986C105.752 18.5485 105.936 19.0288 106.054 19.5267C106.138 19.1137 106.32 18.6545 106.599 18.149C106.651 18.0566 106.684 17.9929 106.701 17.9581L109.175 13.1936H114.997L108.5 23.253V31.6941L103.615 31.6957Z" fill="#3D4046"/>
<path d="M30.5141 23.1106L25.7578 27.8475L34.2244 35.9411L38.9807 31.2045L30.5141 23.1106Z" fill="#0090F9"/>
<path d="M14.0356 36.0001V26.5262L9.51289 22.0226L14.0356 17.5191V8.04517L0 22.0226L14.0356 36.0001Z" fill="#0090F9"/>
<path d="M34.0552 8.00024L15.6377 26.3274V17.8737L18.8751 21.0912L23.6391 16.3543L15.4375 8.20115V17.1384V17.6747V26.5267V28.3131V36.0002L38.8041 12.7372L34.0552 8.00024Z" fill="#0090F9"/>
</g>
<g clip-path="url(#clip1_3804_27544)">
<path d="M23.4359 9.96717C23.4608 10.2941 22.99 10.2625 22.8853 10.045C22.8524 9.97175 22.7732 9.96438 22.7177 9.99458C22.6834 9.99609 22.6474 10.0124 22.6275 10.0547C22.3856 10.5431 22.1635 9.81566 22.1502 9.64008C22.1449 9.58542 22.0915 9.52298 22.0304 9.53747C21.8099 9.58355 21.3565 9.35487 21.6589 9.10669C21.759 9.02538 21.665 8.86771 21.5609 8.90803C21.5409 8.90093 21.5221 8.89697 21.4962 8.90257C21.1494 8.97559 21.0458 8.57388 21.2828 8.37708C21.3452 8.32679 21.347 8.22363 21.2671 8.1847C20.9906 8.0526 21.1707 7.87235 21.2883 7.78133C21.3078 7.76739 21.389 7.72106 21.4584 7.71067C21.4752 7.71886 21.496 7.71859 21.5115 7.71312C21.5272 7.71817 21.5368 7.72541 21.5423 7.74113C21.5876 7.85945 21.7511 7.81939 21.7571 7.71828C21.7602 7.71719 21.7653 7.71186 21.7662 7.70448L21.7724 7.70229C21.7724 7.70229 21.7783 7.68958 21.7803 7.68535C21.8033 7.64189 21.7999 7.583 21.77 7.54762C21.7761 7.49596 21.8022 7.45142 21.8398 7.40987C21.8723 7.37366 22.0135 7.27075 22.0662 7.30163C22.1411 7.34589 22.2043 7.28822 22.2164 7.22386C22.2781 7.19147 22.3114 7.09841 22.2434 7.03406C22.0542 6.85345 22.4265 6.37912 22.5858 6.57381C22.6403 6.63939 22.7797 6.63965 22.7867 6.53116C22.7997 6.27208 23.0853 6.01571 23.3181 6.241C23.344 6.28486 23.4091 6.31136 23.4586 6.29386C23.4834 6.28511 23.5017 6.26803 23.5168 6.24152C23.5845 6.10802 23.7449 6.06905 23.8848 6.09035C24.0404 6.1167 23.9718 6.35651 23.9374 6.44643C23.899 6.54481 24.0067 6.66231 24.1017 6.58633C24.1539 6.5467 24.1948 6.51458 24.2598 6.49162C24.4476 6.42177 24.486 6.69805 24.4102 6.79904C24.389 6.82773 24.3813 6.8552 24.387 6.88143C24.3517 6.97873 24.4955 7.07996 24.5819 6.98935C24.648 6.92007 24.7817 6.85515 24.8694 6.91608C24.9201 6.95119 24.941 7.00038 24.9247 7.06269C24.917 7.09015 24.9104 7.12076 24.9027 7.14823C24.8998 7.15984 24.8757 7.20015 24.8961 7.17883C24.8859 7.18949 24.8819 7.19797 24.8779 7.20644C24.8063 7.26001 24.8082 7.39364 24.9167 7.40483C25.0627 7.42395 25.1181 7.53161 25.1389 7.66921C25.1549 7.78371 25.0424 7.8694 24.9732 7.93977C24.9396 7.97285 24.9395 8.01179 24.9517 8.04636C24.9453 8.08749 24.9619 8.13462 25.0124 8.15921C25.2249 8.26795 25.1893 8.67993 24.916 8.64567C24.7961 8.63147 24.725 8.80501 24.8479 8.85706C25.1483 8.98778 24.7079 9.48617 24.4516 9.42116C24.4463 9.41597 24.4367 9.40873 24.4283 9.40463C24.342 9.35736 24.275 9.43402 24.2778 9.51082C24.2703 9.5488 24.2847 9.58966 24.3268 9.61015C24.2921 9.64008 24.1952 9.86869 24.1532 9.89766C24.0641 9.96094 23.7212 10.0749 23.6558 9.93899C23.6035 9.83023 23.4292 9.84938 23.4415 9.98288L23.4359 9.96717Z" fill="white"/>
<path d="M7.12168 15.4069C7.01973 15.4535 6.87081 15.446 6.79084 15.3576C6.71507 15.2713 6.73465 15.1689 6.82708 15.1151C6.89076 15.0785 6.88715 15.009 6.85081 14.9653C6.84877 14.9201 6.81863 14.8742 6.76529 14.8612C6.35008 14.7604 6.46415 14.4621 6.68892 14.2308C6.73268 14.187 6.71954 14.1104 6.67502 14.0731C6.44357 13.8615 6.3857 13.5497 6.72941 13.4283C6.75727 13.4184 6.77562 13.4014 6.78865 13.3791C6.89107 13.3535 6.90703 13.1818 6.78376 13.1581C6.73574 13.1504 6.60651 13.1394 6.61948 13.0677C6.62848 13.0044 6.69988 12.9403 6.74253 12.8935C6.83093 12.7986 6.93949 12.7214 7.04828 12.6547C7.10577 12.6203 7.11384 12.5149 7.05472 12.4757C6.77705 12.291 7.14162 12.0315 7.35603 12.0371C7.42573 12.0372 7.45688 11.9873 7.4546 11.9316C7.50257 11.8899 7.51864 11.8171 7.45198 11.7664C7.06799 11.4778 7.56542 11.2986 7.78708 11.2557C7.85543 11.2422 7.94768 11.2273 8.00383 11.1792C8.14885 11.0573 8.45408 10.5607 8.65545 10.7758C8.65813 10.8032 8.66503 10.8325 8.67922 10.8629C8.72671 10.9875 8.90654 10.9346 8.89247 10.8158C8.90328 10.7873 8.90457 10.7515 8.88926 10.718C8.93186 10.6217 9.14247 10.5968 9.19616 10.7192C9.23675 10.8144 9.34805 10.814 9.40239 10.7312C9.49073 10.5869 9.82948 10.3824 9.90874 10.6266C9.9154 10.6455 9.92405 10.6601 9.93889 10.6725C9.93678 10.7652 10.0581 10.8425 10.131 10.7531C10.1978 10.6659 10.5078 10.2914 10.6347 10.5717C10.663 10.6324 10.7452 10.6776 10.8044 10.6284C11.0107 10.4531 11.5289 10.0863 11.6995 10.5102C11.7117 10.5448 11.7361 10.5645 11.7644 10.5757C11.7723 10.6966 11.9613 10.7288 11.9802 10.5949C12.0164 10.3029 12.4164 10.3313 12.5326 10.5518C12.5652 10.6145 12.6703 10.6163 12.7097 10.56C12.7993 10.4293 13.018 10.2496 13.1953 10.3673C13.2365 10.3951 13.361 10.4714 13.3776 10.5185C13.382 10.5311 13.3896 10.5425 13.4002 10.5529C13.4098 10.6591 13.5661 10.717 13.6082 10.5996C13.7013 10.3405 14.0848 10.3218 14.1864 10.5899C14.2097 10.6559 14.2958 10.6926 14.3551 10.6434C14.4419 10.5738 14.6488 10.3806 14.7706 10.479C14.8289 10.5256 14.8783 10.5965 14.9202 10.6559C14.9202 10.6559 14.9213 10.659 14.9224 10.6622C14.9068 10.7561 15.0016 10.8569 15.0863 10.781C15.2923 10.5952 15.5283 10.5436 15.6833 10.8247C15.7212 10.8926 15.8146 10.8808 15.8603 10.8329C16.0738 10.609 16.3832 10.6765 16.4904 10.9603C16.4345 11.0684 16.5849 11.1884 16.6731 11.0831C16.7926 10.9384 17.1959 10.8278 17.2167 11.1138C17.2239 11.2031 17.3574 11.2655 17.4137 11.1785C17.6008 10.8898 17.8798 11.0387 17.9516 11.3208C17.9538 11.3271 17.956 11.3334 17.9582 11.3397C17.9603 11.4344 18.1124 11.4902 18.1725 11.3842C18.3067 11.153 18.6421 11.2643 18.7136 11.4865C18.7382 11.5661 18.85 11.5867 18.9037 11.5218C18.9704 11.4346 19.0518 11.3988 19.1597 11.389C19.3341 11.3698 19.3507 11.6043 19.3699 11.7177C19.3748 11.7513 19.391 11.7774 19.4142 11.7939C19.4572 11.8565 19.5648 11.8751 19.6107 11.7882C19.7385 11.5486 20.2267 11.6095 20.1268 11.9381C20.0852 12.0766 20.3014 12.1169 20.3442 11.9816C20.3724 11.8938 20.493 11.8901 20.5678 11.8849C20.7412 11.8732 20.7843 12.0347 20.7843 12.1725C20.7859 12.2462 20.8428 12.2791 20.903 12.272C20.9283 12.3338 20.9978 12.3728 21.0601 12.3225C21.1306 12.2658 21.2025 12.2228 21.285 12.1901C21.4522 12.1311 21.4874 12.359 21.4667 12.4582C21.4392 12.5775 21.5868 12.6208 21.6602 12.5524C21.7754 12.4446 21.8674 12.4686 21.936 12.6035C21.9697 12.6694 21.9697 12.7188 21.9543 12.7737C21.9185 12.8005 21.8986 12.8429 21.9175 12.8963L21.9297 12.9309C21.9663 13.0346 22.0898 13.0193 22.1317 12.9408C22.402 12.8383 22.669 13.0126 22.6747 13.3146C22.6769 13.3704 22.7365 13.4306 22.7956 13.4204C23.1073 13.3562 23.2026 13.7149 23.0296 13.9351C22.985 13.9862 23.0029 14.047 23.0402 14.0833C23.034 14.135 23.0582 14.1936 23.125 14.2053C23.4176 14.2646 23.2042 14.5873 23.0443 14.6474C22.9731 14.6725 22.9372 14.7877 23.0111 14.8393C23.0893 14.893 23.1737 14.9445 23.2529 15.0014C23.4316 15.1327 23.3269 15.2898 23.2308 15.4121C23.1483 15.4448 23.1434 15.5985 23.2554 15.6296C23.3999 15.674 23.4738 15.6762 23.5037 15.8495C23.5311 16.0059 23.3908 16.0625 23.2745 16.1177C23.2024 16.1502 23.1662 16.2549 23.2413 16.3097C23.3503 16.3914 23.417 16.4915 23.3534 16.6271C23.2929 16.7616 23.127 16.7848 23.013 16.7084C22.9908 16.6951 22.9678 16.689 22.9459 16.6862C22.9238 16.6728 22.8946 16.669 22.8636 16.6799C22.7738 16.7116 22.684 16.7433 22.5862 16.7425C22.4687 16.7451 22.4232 16.6163 22.4804 16.5219C22.5356 16.4317 22.4393 16.3561 22.3574 16.3709C22.3346 16.3259 22.287 16.2897 22.2251 16.3116C22.1249 16.3435 21.7351 16.4033 21.8236 16.2201C21.8605 16.147 21.7979 16.0489 21.715 16.0605C21.4785 16.091 21.1342 16.0924 21.1469 15.7734C21.1521 15.6796 21.06 15.6556 20.9941 15.6859C20.9742 15.6788 20.9512 15.6728 20.9233 15.6827C20.7156 15.7454 20.5289 15.7195 20.3948 15.5371C20.3434 15.4704 20.2843 15.4312 20.2048 15.4133C20.1223 15.3965 20.0287 15.4472 19.9544 15.4735C19.7655 15.5402 19.6794 15.3161 19.6297 15.1852C19.6086 15.1255 19.5542 15.1094 19.5075 15.1153C19.4814 15.1103 19.4524 15.117 19.427 15.1437C19.3474 15.2142 19.0056 15.2324 19.0831 15.0672C19.1407 14.9444 18.9859 14.8612 18.8973 14.9455C18.772 15.064 18.4135 15.0845 18.3653 14.8789C18.3411 14.7708 18.2094 14.7925 18.1675 14.871C18.1447 14.8755 18.121 14.8874 18.1007 14.9087C17.9803 15.0608 17.8002 14.7285 17.7253 14.6348C17.6762 14.5744 17.6023 14.5722 17.5483 14.6266C17.412 14.7631 17.0077 14.7822 16.9605 14.5302C16.9485 14.4567 16.8823 14.4271 16.8252 14.4331C16.8053 14.426 16.7834 14.4231 16.7555 14.4329C16.5202 14.5161 16.2772 14.6266 16.1041 14.3732C16.0697 14.3252 15.9976 14.3083 15.9474 14.3437C15.7776 14.4743 15.406 14.5561 15.3291 14.2793C15.3102 14.2258 15.2744 14.2032 15.2328 14.2037C15.1909 14.1938 15.1445 14.2102 15.126 14.2662C15.0647 14.4575 14.7956 14.4253 14.7149 14.2558C14.6798 14.1763 14.5459 14.1423 14.5117 14.2428C14.4639 14.3834 14.3322 14.4051 14.2024 14.4121C14.0247 14.4218 13.9405 14.2819 13.8872 14.1311C13.8661 14.0714 13.8147 14.0541 13.7692 14.0632C13.747 14.0498 13.7189 14.0491 13.686 14.0643C13.5964 14.1065 13.5754 14.1457 13.4886 14.2153C13.2945 14.3757 13.001 14.2744 12.8833 14.0791C12.8476 14.0175 12.7487 14.0136 12.7062 14.071C12.583 14.2347 12.1885 14.3209 12.0997 14.0695C12.0787 14.0098 12.0304 13.9915 11.9848 14.0005C11.9448 13.9758 11.8886 13.9745 11.8479 14.0171C11.6537 14.2659 11.4172 14.2964 11.13 14.1045C11.0644 14.057 10.9651 14.0814 10.9504 14.1679C10.9121 14.3652 10.4138 14.5518 10.3909 14.2206C10.3832 14.1102 10.2254 14.0776 10.1808 14.1781C10.1382 14.2745 9.78996 14.659 9.70486 14.3392C9.67998 14.249 9.58639 14.2502 9.53024 14.2983C9.48023 14.2948 9.42671 14.3207 9.41041 14.3831C9.34589 14.6639 8.75191 14.5696 8.65413 14.3815C8.60734 14.2885 8.4722 14.3397 8.45327 14.4242C8.40394 14.6395 7.79211 15.0076 7.70702 14.6877C7.67279 14.5513 7.47152 14.6224 7.49733 14.7547C7.48009 14.7749 7.46706 14.7972 7.46776 14.8287C7.46249 15.0604 7.33996 15.3051 7.12367 15.4027L7.12168 15.4069Z" fill="white"/>
<path d="M18.8478 11.2761C18.6814 11.0415 18.345 10.9765 18.1155 11.1353C18.0571 10.9898 17.9534 10.8144 17.8166 10.792C17.6652 10.7677 17.4956 10.8099 17.3676 10.9011C17.2275 10.6819 16.8976 10.6747 16.6592 10.8084C16.4862 10.4665 16.0903 10.3907 15.7912 10.5989C15.6039 10.3646 15.3207 10.3515 15.0755 10.5052C15.0015 10.4041 14.916 10.3 14.8055 10.2436C14.6518 10.1636 14.4526 10.2799 14.3124 10.3859C14.1155 10.1338 13.7154 10.1055 13.5019 10.3293C13.4144 10.2294 13.2791 10.1323 13.1872 10.1188C12.9713 10.089 12.7669 10.1612 12.6161 10.3063C12.4035 10.0987 12.021 10.1101 11.8437 10.3282C11.5977 9.92728 11.081 10.1309 10.7576 10.3689C10.5704 10.1346 10.2862 10.2667 10.0753 10.4684C9.9137 10.1685 9.5191 10.2937 9.29609 10.5103C9.12866 10.3715 8.85588 10.4078 8.72483 10.5495C8.65642 10.5136 8.58117 10.4977 8.49488 10.4999C9.09581 9.07538 10.0219 7.7728 10.9372 6.54825C11.8789 5.28967 12.9883 4.09202 14.3349 3.27009C15.0882 2.80965 15.9379 2.6121 16.8002 2.84483C17.5076 3.0333 18.1239 3.52608 18.6893 3.97323C19.871 4.91317 21.0462 5.84477 21.9481 7.06731C21.853 7.09383 21.7628 7.15397 21.7047 7.20631C21.62 7.28215 21.5628 7.37658 21.5474 7.48097C21.5401 7.48002 21.5328 7.47906 21.5224 7.4792C21.2587 7.26484 20.9282 7.13767 20.5875 7.2085C20.2913 7.26715 19.8449 7.35411 19.6383 7.60733C19.5232 7.38996 19.367 7.19417 19.1578 7.09486C19.0285 7.03448 18.9332 7.23781 19.0624 7.29819C19.321 7.41895 19.4515 7.71927 19.5548 7.97259C19.6065 8.09924 19.7304 8.43017 19.7268 8.64702C19.3785 8.37064 19.0519 8.3234 18.5914 8.15376C18.4593 8.10499 18.3628 8.30518 18.4961 8.35709C18.9209 8.51458 19.3066 8.55156 19.6612 8.87522C20.0264 9.20926 20.2845 9.68364 20.5741 10.0797C20.8509 10.4591 21.2282 10.7288 21.4785 11.1317C21.719 11.5169 21.9744 11.9639 22.0667 12.4226C22.0474 12.3976 22.0281 12.3726 22.0046 12.3456C21.9067 12.2458 21.7892 12.2485 21.6789 12.291C21.6535 12.1797 21.5806 12.0818 21.4719 12.0106C21.3189 11.9127 21.1325 11.9962 20.9932 12.0948C20.9728 11.8794 20.8589 11.7146 20.6261 11.6766C20.527 11.6622 20.4232 11.6741 20.3356 11.7121C20.2318 11.4377 19.8086 11.3539 19.5484 11.5341C19.5119 11.3915 19.4487 11.2618 19.2975 11.1986C19.1506 11.1374 18.9747 11.1818 18.8436 11.274L18.8478 11.2761Z" fill="#FD4736"/>
<path d="M22.5835 6.56056C22.4242 6.36587 22.0519 6.8402 22.2411 7.02081C22.306 7.08625 22.2716 7.17617 22.2141 7.21061C22.2031 7.27811 22.1388 7.33264 22.0639 7.28837C22.0112 7.2575 21.8699 7.36041 21.8375 7.39662C21.7999 7.43817 21.7707 7.48381 21.7677 7.53436C21.7945 7.57084 21.801 7.62864 21.778 7.6721C21.776 7.67633 21.7741 7.68057 21.769 7.6859L21.7628 7.68808C21.7628 7.68808 21.7568 7.70079 21.7548 7.70503C21.7456 7.80724 21.5853 7.8462 21.54 7.72788C21.5345 7.71216 21.5218 7.70602 21.5092 7.69987C21.4937 7.70534 21.4729 7.70561 21.4561 7.69742C21.3878 7.71095 21.3055 7.75414 21.286 7.76808C21.1684 7.8591 20.9883 8.03935 21.2648 8.17145C21.3478 8.20928 21.3428 8.31354 21.2805 8.36383C21.0435 8.56062 21.1471 8.96233 21.4939 8.88932C21.5167 8.88481 21.5386 8.88768 21.5586 8.89478C21.6596 8.85555 21.7567 9.01213 21.6566 9.09344C21.353 9.33848 21.8095 9.56606 22.0281 9.52422C22.0892 9.50973 22.1426 9.57217 22.1479 9.62683C22.1643 9.80131 22.3832 10.5298 22.6252 10.0415C22.6451 9.99911 22.6811 9.98284 22.7154 9.98133C22.7689 9.95537 22.8482 9.96273 22.883 10.0317C22.9888 10.2524 23.4565 10.2851 23.4336 9.95391C23.4244 9.81932 23.5956 9.80127 23.648 9.91003C23.7145 10.0491 24.0562 9.93197 24.1453 9.8687C24.1873 9.83972 24.2831 9.60797 24.3189 9.58118C24.2769 9.56069 24.2624 9.51984 24.2699 9.48185C24.2672 9.40506 24.3372 9.3273 24.4205 9.37566C24.4289 9.37976 24.4384 9.387 24.4437 9.39219C24.7 9.4572 25.1416 8.96196 24.84 8.82809C24.7172 8.77605 24.7882 8.60251 24.9082 8.6167C25.1846 8.64987 25.2171 8.23899 25.0046 8.13025C24.9541 8.10566 24.9374 8.05852 24.9438 8.01739C24.9316 7.98282 24.9318 7.94388 24.9654 7.91081C25.0346 7.84043 25.1471 7.75474 25.131 7.64024C25.1103 7.50265 25.0549 7.39498 24.9088 7.37587C24.7993 7.36154 24.7985 7.23105 24.8701 7.17747C24.8741 7.169 24.8769 7.15739 24.8882 7.14987C24.8679 7.17119 24.8908 7.12774 24.8948 7.11926C24.9025 7.0918 24.9091 7.06119 24.9168 7.03372C24.93 6.97251 24.9123 6.92223 24.8616 6.88712C24.7708 6.82728 24.637 6.8922 24.574 6.96039C24.4887 7.05414 24.3481 6.95181 24.3792 6.85247C24.3765 6.82514 24.38 6.79563 24.4023 6.77007C24.4792 6.67223 24.4397 6.3928 24.252 6.46265C24.1869 6.48562 24.146 6.51773 24.0939 6.55736C24.0019 6.63225 23.8931 6.51161 23.9295 6.41746C23.964 6.32755 24.0314 6.0846 23.8769 6.06139C23.7402 6.039 23.5809 6.0811 23.5089 6.21256C23.4939 6.23907 23.4724 6.25724 23.4508 6.2649C23.4012 6.28239 23.3404 6.25794 23.3102 6.21204C23.0774 5.98675 22.7929 6.24626 22.7788 6.50219C22.775 6.60959 22.6325 6.61043 22.578 6.54485L22.5835 6.56056ZM18.1193 11.1379C18.3457 10.9802 18.6841 11.0409 18.8516 11.2787C18.9827 11.1864 19.1586 11.142 19.3055 11.2032C19.4536 11.2675 19.5199 11.3961 19.5564 11.5388C19.8166 11.3585 20.2387 11.4392 20.3436 11.7167C20.4312 11.6787 20.5338 11.6637 20.6341 11.6813C20.8627 11.7172 20.9808 11.884 21.0012 12.0995C21.1405 12.0008 21.3269 11.9173 21.4799 12.0152C21.5886 12.0864 21.6604 12.1812 21.6869 12.2956C21.7973 12.2531 21.9178 12.2494 22.0127 12.3502C22.035 12.3741 22.0585 12.4012 22.0747 12.4273C21.9824 11.9686 21.7239 11.5226 21.4865 11.1364C21.2362 10.7335 20.8589 10.4638 20.5821 10.0844C20.2925 9.68828 20.0344 9.21389 19.6692 8.87986C19.3115 8.55729 18.9289 8.51922 18.5041 8.36173C18.3708 8.30982 18.4642 8.11072 18.5994 8.15839C19.061 8.33119 19.3876 8.37842 19.7349 8.65166C19.7384 8.43481 19.6126 8.10812 19.5628 7.97722C19.4626 7.72281 19.3321 7.42249 19.0705 7.30283C18.9412 7.24245 19.0365 7.03912 19.1658 7.0995C19.3781 7.19771 19.5343 7.3935 19.6463 7.61197C19.8529 7.35875 20.2973 7.27603 20.5955 7.21314C20.9362 7.14231 21.2667 7.26948 21.5304 7.48384C21.5377 7.48479 21.545 7.48575 21.5554 7.48561C21.5708 7.38122 21.6249 7.28788 21.7127 7.21094C21.7708 7.1586 21.8652 7.10052 21.9561 7.07195C21.0531 5.84626 19.8779 4.91466 18.6973 3.97787C18.135 3.52963 17.5156 3.03794 16.8082 2.84946C15.9459 2.61674 15.0931 2.81539 14.3429 3.27473C12.9963 4.09666 11.8869 5.29431 10.9453 6.55289C10.0299 7.77744 9.10381 9.08001 8.50289 10.5046C8.58807 10.4992 8.66752 10.5171 8.73284 10.5541C8.86389 10.4124 9.13667 10.3762 9.3041 10.515C9.52711 10.2984 9.92282 10.1763 10.0833 10.4731C10.2942 10.2714 10.5784 10.1392 10.7656 10.3735C11.0891 10.1356 11.6057 9.93192 11.8517 10.3328C12.0321 10.1136 12.4146 10.1022 12.6242 10.311C12.7738 10.1627 12.9793 10.0937 13.1953 10.1234C13.2871 10.1369 13.4224 10.2341 13.5099 10.3339C13.7234 10.1101 14.1235 10.1385 14.3205 10.3905C14.4606 10.2845 14.6598 10.1682 14.8135 10.2482C14.9251 10.3078 15.0064 10.4099 15.0835 10.5099C15.3287 10.3561 15.6119 10.3692 15.7992 10.6035C16.0983 10.3954 16.4942 10.4712 16.6672 10.813C16.9056 10.6793 17.2355 10.6865 17.3756 10.9057C17.5036 10.8145 17.6732 10.7723 17.8246 10.7966C17.9614 10.819 18.064 10.9913 18.1235 11.1399L18.1193 11.1379ZM6.79191 15.3537C6.87188 15.4421 7.0177 15.4507 7.12275 15.403C7.33904 15.3054 7.46157 15.0607 7.46685 14.8291C7.46615 14.7975 7.47807 14.7721 7.49641 14.755C7.46949 14.6196 7.67076 14.5485 7.7061 14.688C7.7912 15.0079 8.39993 14.641 8.45235 14.4245C8.47129 14.3401 8.60332 14.2899 8.65321 14.3818C8.751 14.57 9.34497 14.6642 9.40949 14.3834C9.42469 14.3179 9.4782 14.292 9.52932 14.2987C9.58547 14.2506 9.68018 14.2525 9.70395 14.3395C9.78904 14.6594 10.1373 14.2748 10.1799 14.1785C10.2265 14.0737 10.3812 14.1074 10.39 14.2209C10.4129 14.5522 10.9112 14.3656 10.9495 14.1683C10.9673 14.0807 11.0635 14.0573 11.1291 14.1048C11.4163 14.2968 11.6559 14.2652 11.847 14.0174C11.8876 13.9748 11.9438 13.9762 11.9839 14.0009C12.0306 13.995 12.0789 14.0133 12.0988 14.0699C12.1865 14.3181 12.582 14.235 12.7053 14.0713C12.7488 14.017 12.8447 14.0221 12.8823 14.0795C13 14.2747 13.2947 14.3792 13.4876 14.2156C13.5714 14.1472 13.5955 14.1068 13.6851 14.0646C13.7149 14.0505 13.743 14.0512 13.7683 14.0635C13.8169 14.0534 13.8652 14.0717 13.8863 14.1314C13.9395 14.2822 14.0227 14.419 14.2014 14.4124C14.3324 14.4086 14.4598 14.3848 14.5108 14.2431C14.5481 14.1416 14.6789 14.1767 14.7139 14.2562C14.7947 14.4256 15.0638 14.4578 15.1251 14.2665C15.1436 14.2105 15.19 14.1941 15.2319 14.2041C15.2735 14.2035 15.3124 14.2251 15.3282 14.2796C15.4051 14.5564 15.7767 14.4747 15.9465 14.344C15.9967 14.3086 16.0677 14.3224 16.1032 14.3735C16.2762 14.627 16.5193 14.5164 16.7546 14.4333C16.7794 14.4245 16.8013 14.4274 16.8243 14.4334C16.8814 14.4274 16.9476 14.457 16.9596 14.5305C17.0026 14.7805 17.4099 14.7603 17.5474 14.6269C17.6024 14.5757 17.6752 14.5747 17.7244 14.6351C17.7951 14.7268 17.9794 15.0611 18.0998 14.909C18.119 14.8846 18.1427 14.8727 18.1666 14.8713C18.2085 14.7929 18.3401 14.7711 18.3644 14.8792C18.4126 15.0848 18.7721 15.0675 18.8964 14.9458C18.9819 14.8626 19.1398 14.9447 19.0821 15.0675C19.0047 15.2328 19.3476 15.2177 19.4261 15.144C19.4526 15.1205 19.4816 15.1138 19.5066 15.1156C19.5552 15.1055 19.6066 15.1227 19.6288 15.1855C19.6754 15.3175 19.7646 15.5405 19.9535 15.4738C20.0278 15.4476 20.1213 15.3969 20.2039 15.4137C20.2833 15.4315 20.3425 15.4707 20.3939 15.5374C20.531 15.7187 20.7178 15.7447 20.9224 15.683C20.9503 15.6732 20.9733 15.6792 20.9932 15.6863C21.0591 15.6559 21.1512 15.68 21.146 15.7737C21.1333 16.0928 21.4787 16.0945 21.7141 16.0609C21.797 16.0492 21.8564 16.1484 21.8227 16.2204C21.7341 16.4037 22.1208 16.3449 22.2241 16.3119C22.2861 16.2901 22.3337 16.3263 22.3565 16.3712C22.4415 16.3554 22.5347 16.432 22.4795 16.5222C22.4223 16.6166 22.4667 16.7423 22.5853 16.7429C22.682 16.7405 22.7729 16.712 22.8627 16.6802C22.8936 16.6693 22.9228 16.6731 22.945 16.6865C22.9658 16.6862 22.9919 16.6912 23.0121 16.7088C23.123 16.7862 23.292 16.7619 23.3525 16.6274C23.413 16.493 23.3474 16.396 23.2404 16.31C23.1684 16.2542 23.2015 16.1506 23.2736 16.118C23.391 16.066 23.5313 16.0094 23.5028 15.8498C23.4729 15.6765 23.4021 15.6733 23.2545 15.63C23.1425 15.5988 23.1474 15.4451 23.2299 15.4124C23.3249 15.287 23.4307 15.133 23.252 15.0017C23.1758 14.9438 23.0926 14.8954 23.0102 14.8397C22.9362 14.788 22.9733 14.676 23.0434 14.6477C23.2002 14.5888 23.4136 14.266 23.1241 14.2057C23.0573 14.1939 23.0331 14.1353 23.0392 14.0836C23.002 14.0473 22.9871 13.9854 23.0287 13.9354C23.2028 13.7184 23.1095 13.3555 22.7947 13.4207C22.7356 13.431 22.676 13.3707 22.6737 13.315C22.6681 13.013 22.4011 12.8387 22.1308 12.9412C22.0869 13.0238 21.9665 13.0381 21.9288 12.9312L21.9166 12.8967C21.8977 12.8432 21.9176 12.8009 21.9534 12.7741C21.9657 12.7202 21.9688 12.6697 21.935 12.6038C21.8665 12.469 21.7745 12.4449 21.6593 12.5528C21.587 12.6242 21.4383 12.5778 21.4658 12.4585C21.4885 12.3551 21.4502 12.1283 21.2841 12.1904C21.2005 12.22 21.1286 12.263 21.0592 12.3229C20.9938 12.3743 20.9273 12.3341 20.902 12.2723C20.845 12.2784 20.785 12.2465 20.7833 12.1729C20.7834 12.035 20.7414 11.8766 20.5668 11.8853C20.4921 11.8905 20.3715 11.8942 20.3432 11.9819C20.3005 12.1172 20.0843 12.0769 20.1259 11.9385C20.2258 11.6099 19.7376 11.549 19.6098 11.7885C19.5638 11.8754 19.4563 11.8569 19.4133 11.7943C19.39 11.7778 19.375 11.7548 19.369 11.718C19.3498 11.6046 19.3332 11.3702 19.1588 11.3893C19.0509 11.3992 18.9695 11.435 18.9028 11.5222C18.8522 11.586 18.7373 11.5665 18.7127 11.4868C18.6412 11.2646 18.3058 11.1533 18.1715 11.3845C18.1115 11.4906 17.9594 11.4347 17.9573 11.34C17.9551 11.3337 17.9529 11.3274 17.9507 11.3212C17.8789 11.039 17.5988 10.887 17.4128 11.1788C17.3565 11.2659 17.223 11.2035 17.2158 11.1141C17.1949 10.8281 16.7917 10.9387 16.6721 11.0834C16.5871 11.1877 16.4356 11.0645 16.4895 10.9606C16.3834 10.68 16.0709 10.6136 15.8594 10.8332C15.8136 10.8812 15.7203 10.8929 15.6824 10.825C15.5274 10.544 15.2914 10.5955 15.0854 10.7814C15.0007 10.8572 14.9048 10.7533 14.9215 10.6625C14.9215 10.6625 14.9204 10.6594 14.9193 10.6562C14.8763 10.5937 14.828 10.5259 14.7697 10.4793C14.6479 10.3809 14.4399 10.571 14.3541 10.6437C14.2949 10.6929 14.2108 10.652 14.1855 10.5902C14.0808 10.3232 13.6973 10.342 13.6073 10.6C13.5652 10.7174 13.4089 10.6594 13.3993 10.5533C13.3918 10.5418 13.3811 10.5314 13.3767 10.5188C13.3589 10.4686 13.2356 10.3955 13.1944 10.3676C13.0171 10.25 12.7984 10.4297 12.7087 10.5603C12.6694 10.6166 12.5632 10.6117 12.5317 10.5521C12.4155 10.3316 12.0166 10.3064 11.9793 10.5953C11.9604 10.7292 11.7714 10.6969 11.7635 10.576C11.7352 10.5648 11.7139 10.5441 11.6986 10.5106C11.5311 10.0855 11.0098 10.4534 10.8035 10.6288C10.7443 10.6779 10.6621 10.6327 10.6337 10.5721C10.5069 10.2917 10.1968 10.6663 10.1301 10.7535C10.0583 10.846 9.93586 10.7655 9.93797 10.6729C9.92734 10.6625 9.9156 10.6489 9.90783 10.627C9.82857 10.3828 9.48982 10.5872 9.40147 10.7315C9.34824 10.8175 9.23893 10.8137 9.19524 10.7195C9.14156 10.5971 8.92785 10.6231 8.88834 10.7184C8.90675 10.7507 8.90546 10.7865 8.89155 10.8162C8.90761 10.9307 8.72889 10.9867 8.6783 10.8632C8.66721 10.8318 8.65722 10.8035 8.65453 10.7762C8.45317 10.561 8.14682 11.0544 8.00291 11.1795C7.94566 11.2245 7.85452 11.2425 7.78616 11.256C7.5645 11.299 7.06708 11.4782 7.45107 11.7667C7.51661 11.8142 7.50054 11.8871 7.45368 11.9319C7.45596 11.9877 7.42482 12.0375 7.35512 12.0374C7.14071 12.0318 6.77613 12.2914 7.0538 12.4761C7.11292 12.5153 7.10374 12.6175 7.04736 12.6551C6.93857 12.7218 6.82692 12.8001 6.74161 12.8938C6.69785 12.9375 6.62757 13.0048 6.61856 13.068C6.60868 13.1387 6.7368 13.1465 6.78284 13.1585C6.90611 13.1821 6.89015 13.3539 6.78773 13.3794C6.7778 13.4006 6.75945 13.4177 6.72849 13.4286C6.38787 13.5489 6.44265 13.8618 6.67411 14.0734C6.71553 14.1118 6.73176 14.1874 6.688 14.2311C6.46323 14.4625 6.34607 14.7619 6.76437 14.8616C6.8208 14.8734 6.84785 14.9204 6.84989 14.9657C6.88734 15.0125 6.88984 15.0788 6.82616 15.1154C6.73373 15.1693 6.71415 15.2716 6.78992 15.358L6.79191 15.3537ZM6.45426 14.1511C6.20546 13.8607 6.19175 13.4768 6.51193 13.2789C6.41051 13.2087 6.35309 13.1052 6.41643 12.9592C6.49169 12.7877 6.64465 12.6488 6.80141 12.5404C6.58848 12.2728 6.87483 11.9101 7.19646 11.8248C7.09697 11.7009 7.04125 11.5332 7.13047 11.3816C7.30892 11.0782 7.54331 11.1403 7.8255 11.0124C8.00264 10.9322 8.08118 10.7206 8.22198 10.5967C8.22064 10.583 8.22351 10.5714 8.22836 10.5556C8.87533 8.9557 9.94014 7.43448 11.0047 6.09008C11.9977 4.84871 13.2317 3.45155 14.7323 2.81912C16.1576 2.22032 17.3986 2.68692 18.5756 3.60377C19.8013 4.55996 21.0293 5.52243 21.9865 6.75371C22.0604 6.46963 22.3471 6.2164 22.5987 6.30778C22.7154 5.98734 23.1064 5.79271 23.3983 6.00775C23.557 5.84567 23.8209 5.78429 24.0272 5.89521C24.1651 5.97021 24.2027 6.116 24.1924 6.26453C24.3196 6.23022 24.4513 6.25794 24.5694 6.3753C24.6502 6.45632 24.6807 6.56221 24.6726 6.66756C24.7967 6.63434 24.9301 6.6473 25.03 6.7428C25.1151 6.82587 25.1719 6.9472 25.1443 7.06649C25.1349 7.10871 25.1236 7.16569 25.106 7.21434C25.2313 7.28319 25.3111 7.41053 25.3436 7.56165C25.3821 7.74952 25.309 7.87784 25.1994 8.00137C25.4549 8.22215 25.4021 8.65435 25.1327 8.79895C25.2997 9.10405 24.9048 9.59341 24.5185 9.62379C24.5006 9.79978 24.3813 10.0045 24.2734 10.0638C24.0914 10.1599 23.8167 10.2498 23.6204 10.1672C23.49 10.4783 23.0109 10.5026 22.7659 10.2427C22.6438 10.4096 22.4313 10.5376 22.2437 10.3812C22.0583 10.2311 21.9771 9.99113 21.9396 9.75693C21.5819 9.75957 21.2529 9.41979 21.376 9.10769C21.1988 9.08899 21.0334 8.99542 20.9558 8.8249C20.867 8.62296 20.9151 8.4434 21.0366 8.29445C20.7255 8.05441 20.9527 7.70199 21.2334 7.54987C20.9836 7.40479 20.7234 7.39772 20.4195 7.48384C20.2014 7.54672 19.9038 7.59172 19.7742 7.79656C19.7631 7.8146 19.7519 7.82211 19.7375 7.83072C19.7575 7.88729 19.7763 7.94071 19.7963 7.99728C19.8625 8.21426 19.9954 8.58084 19.9154 8.81765C20.2401 9.15539 20.4596 9.57976 20.7528 9.94633C20.9615 10.2119 21.2498 10.407 21.4472 10.6801C21.6341 10.9429 21.7755 11.2252 21.9274 11.5073C22.1325 11.8908 22.307 12.2569 22.3219 12.6934C22.5877 12.7162 22.8209 12.9131 22.8739 13.1913C23.2805 13.189 23.4329 13.6795 23.2354 14.0179C23.569 14.144 23.5093 14.5468 23.2728 14.7646C23.4112 14.8607 23.5321 14.9664 23.5582 15.1587C23.578 15.3036 23.5279 15.3885 23.4561 15.481C23.6137 15.5526 23.7004 15.6598 23.7108 15.8965C23.7209 16.0732 23.61 16.183 23.4775 16.2616C23.7532 16.6379 23.3394 17.1622 22.8968 16.905C22.7481 16.9575 22.5652 17.0115 22.4138 16.9377C22.2708 16.8681 22.1931 16.6975 22.222 16.5425C21.9662 16.5974 21.5628 16.5596 21.5632 16.2944C21.2751 16.2972 20.9734 16.2022 20.918 15.9072C20.7514 15.9484 20.5457 15.9574 20.3969 15.8615C20.3251 15.8162 20.2742 15.7705 20.2259 15.7028C20.1508 15.5985 20.1126 15.658 20.0121 15.6793C19.7336 15.7388 19.5671 15.5926 19.4582 15.373C19.2472 15.4758 18.9303 15.3969 18.8511 15.2022C18.6312 15.2798 18.3531 15.2614 18.2142 15.0948C17.9922 15.3146 17.7618 15.0566 17.6001 14.8451C17.327 15.0087 16.9046 14.9565 16.7668 14.6552C16.4746 14.7548 16.195 14.8112 15.9766 14.5773C15.7351 14.712 15.3891 14.7282 15.2068 14.5275C15.0476 14.6685 14.7825 14.6278 14.6117 14.4796C14.4968 14.598 14.3187 14.6361 14.149 14.6289C13.9147 14.6162 13.7849 14.4853 13.7037 14.2948C13.5228 14.3941 13.4314 14.5395 13.1808 14.5007C13.0149 14.4745 12.8763 14.4174 12.7697 14.303C12.5243 14.4957 12.0989 14.494 11.9275 14.2258C11.6693 14.4513 11.3937 14.4991 11.0979 14.342C10.9212 14.6307 10.4319 14.7045 10.2369 14.4482C10.0395 14.6487 9.7104 14.772 9.55063 14.5562C9.35577 14.823 8.83604 14.8404 8.57339 14.6292C8.37543 14.897 7.91656 15.1262 7.65642 14.9813C7.57606 15.3454 7.28374 15.7208 6.88028 15.6336C6.6012 15.5731 6.41275 15.2367 6.57536 15.0167C6.17845 14.8493 6.17316 14.4695 6.44362 14.1407L6.45426 14.1511Z" fill="#1D1D1B"/>
</g>
<defs>
<clipPath id="clip0_3804_27544">
<rect width="115" height="28" fill="white" transform="translate(0 8.00024)"/>
</clipPath>
<clipPath id="clip1_3804_27544">
<rect width="20.3799" height="16.184" fill="white" transform="translate(3.47852 6.78638) rotate(-19.4506)"/>
</clipPath>
</defs>
</svg>
